<?xml version="1.0" encoding="UTF-8" standalone="no"?>
<!-- Created with Inkscape (http://www.inkscape.org/) -->

<svg
   width="39.737366mm"
   height="39.737518mm"
   viewBox="0 0 39.737366 39.737518"
   version="1.1"
   id="svg1"
   inkscape:version="1.3.2 (091e20e, 2023-11-25)"
   sodipodi:docname="fiducialDevice.svg"
   xml:space="preserve"
   xmlns:inkscape="http://www.inkscape.org/namespaces/inkscape"
   xmlns:sodipodi="http://sodipodi.sourceforge.net/DTD/sodipodi-0.dtd"
   xmlns="http://www.w3.org/2000/svg"
   xmlns:svg="http://www.w3.org/2000/svg"><sodipodi:namedview
     id="namedview1"
     pagecolor="#505050"
     bordercolor="#eeeeee"
     borderopacity="1"
     inkscape:showpageshadow="0"
     inkscape:pageopacity="0"
     inkscape:pagecheckerboard="0"
     inkscape:deskcolor="#d1d1d1"
     inkscape:document-units="mm"
     inkscape:zoom="0.64110312"
     inkscape:cx="9634.9555"
     inkscape:cy="279.98616"
     inkscape:window-width="1920"
     inkscape:window-height="1119"
     inkscape:window-x="374"
     inkscape:window-y="1440"
     inkscape:window-maximized="1"
     inkscape:current-layer="layer1"
     showgrid="false" /><defs
     id="defs1" /><g
     inkscape:label="Layer 1"
     inkscape:groupmode="layer"
     id="layer1"
     transform="translate(-2668.4622,31.883861)"><path
       id="path4-0-8-5"
       style="fill:#33c748;stroke-width:1.274;stroke-linecap:square;paint-order:markers stroke fill"
       d="m 2708.1996,-12.015101 a 19.868759,19.868759 0 0 1 -19.8688,19.8687587 19.868759,19.868759 0 0 1 -19.8687,-19.8687587 19.868759,19.868759 0 0 1 19.8687,-19.86876 19.868759,19.868759 0 0 1 19.8688,19.86876 z"
       inkscape:export-filename="greenButton.svg"
       inkscape:export-xdpi="96"
       inkscape:export-ydpi="96" /><path
       style="fill:#0b650d;fill-opacity:1;stroke:none;stroke-width:0.278596px;stroke-linecap:butt;stroke-linejoin:miter;stroke-opacity:1"
       d="m 2677.7003,-22.814597 h 16.1711 l -16.2141,16.2140721 z"
       id="path7-3" /><path
       style="fill:#0b650d;fill-opacity:1;stroke:none;stroke-width:0.278596px;stroke-linecap:butt;stroke-linejoin:miter;stroke-opacity:1"
       d="m 2699.0742,-1.4998557 -16.1709,0.025275 16.189,-16.2391673 z"
       id="path7-0-6" /><path
       id="rect8"
       style="opacity:1;fill:#33c748;stroke-width:1.274;stroke-linecap:square;paint-order:markers stroke fill"
       d="m 2681.1946,-19.417603 h 14.8799 v 14.8799434 h -14.8799 z" /><path
       id="path8"
       style="opacity:1;fill:#33c748;stroke-width:1.17184;stroke-linecap:square;paint-order:markers stroke fill"
       transform="rotate(90)"
       d="m -4.9267678,-2688.3308 a 7.0883336,7.0883336 0 0 1 -7.0883332,7.0883 7.0883336,7.0883336 0 0 1 -7.088334,-7.0883 7.0883336,7.0883336 0 0 1 7.088334,-7.0883 7.0883336,7.0883336 0 0 1 7.0883332,7.0883 z" /><path
       id="path8-3"
       style="fill:#0b650d;stroke-width:0.597244;stroke-linecap:square;paint-order:markers stroke fill"
       transform="rotate(90)"
       d="m -8.4289985,-2688.6152 a 3.6126685,3.6126685 0 0 1 -3.6126685,3.6126 3.6126685,3.6126685 0 0 1 -3.612668,-3.6126 3.6126685,3.6126685 0 0 1 3.612668,-3.6127 3.6126685,3.6126685 0 0 1 3.6126685,3.6127 z" /></g></svg>
