<?xml version="1.0" encoding="UTF-8" standalone="no"?>
<!-- Created with Inkscape (http://www.inkscape.org/) -->

<svg
   width="155.34814mm"
   height="53.816872mm"
   viewBox="0 0 155.34814 53.816872"
   version="1.1"
   id="svg1"
   inkscape:version="1.3.2 (091e20e, 2023-11-25)"
   sodipodi:docname="fiducialDevice.svg"
   xml:space="preserve"
   xmlns:inkscape="http://www.inkscape.org/namespaces/inkscape"
   xmlns:sodipodi="http://sodipodi.sourceforge.net/DTD/sodipodi-0.dtd"
   xmlns="http://www.w3.org/2000/svg"
   xmlns:svg="http://www.w3.org/2000/svg"><sodipodi:namedview
     id="namedview1"
     pagecolor="#505050"
     bordercolor="#eeeeee"
     borderopacity="1"
     inkscape:showpageshadow="0"
     inkscape:pageopacity="0"
     inkscape:pagecheckerboard="0"
     inkscape:deskcolor="#d1d1d1"
     inkscape:document-units="mm"
     inkscape:zoom="0.08013789"
     inkscape:cx="3412.8675"
     inkscape:cy="9677.0704"
     inkscape:window-width="1920"
     inkscape:window-height="1119"
     inkscape:window-x="374"
     inkscape:window-y="1440"
     inkscape:window-maximized="1"
     inkscape:current-layer="layer1"
     showgrid="false" /><defs
     id="defs1" /><g
     inkscape:label="Layer 1"
     inkscape:groupmode="layer"
     id="layer1"
     transform="translate(-2559.8868,-31.481349)"><path
       id="path4-5-3"
       style="stroke-width:1.71677;stroke-linecap:square;paint-order:markers stroke fill"
       d="m 2637.4959,31.48135 a 26.773949,26.773949 0 0 0 -25.4192,18.506364 26.773949,26.773949 0 0 0 -25.4165,-18.498612 26.773949,26.773949 0 0 0 -26.7736,26.774076 26.773949,26.773949 0 0 0 26.7736,26.774077 26.773949,26.773949 0 0 0 25.4191,-18.506881 26.773949,26.773949 0 0 0 25.4166,18.498612 26.773949,26.773949 0 0 0 25.432,-18.541504 26.773949,26.773949 0 0 0 25.5328,18.810739 26.773949,26.773949 0 0 0 26.7741,-26.774077 26.773949,26.773949 0 0 0 -26.7741,-26.774076 26.773949,26.773949 0 0 0 -25.4191,18.506364 26.773949,26.773949 0 0 0 -25.5457,-18.775082 z" /></g></svg>
