<?xml version="1.0" encoding="UTF-8" standalone="no"?>
<!-- Created with Inkscape (http://www.inkscape.org/) -->

<svg
   width="39.737625mm"
   height="39.737522mm"
   viewBox="0 0 39.737625 39.737522"
   version="1.1"
   id="svg1"
   xml:space="preserve"
   xmlns="http://www.w3.org/2000/svg"
   xmlns:svg="http://www.w3.org/2000/svg"><defs
     id="defs1" /><g
     id="layer1"
     transform="translate(-2668.0108,87.257863)"><path
       id="path4-0-8-5-9"
       style="fill:#5afe71;fill-opacity:1;stroke:none;stroke-width:1.274;stroke-linecap:square;paint-order:markers stroke fill"
       d="m 2707.7484,-67.389098 a 19.868759,19.868759 0 0 1 -19.8688,19.868759 19.868759,19.868759 0 0 1 -19.8687,-19.868759 19.868759,19.868759 0 0 1 19.8687,-19.86876 19.868759,19.868759 0 0 1 19.8688,19.86876 z" /><path
       style="fill:#37a13b;fill-opacity:1;stroke:none;stroke-width:0.278596px;stroke-linecap:butt;stroke-linejoin:miter;stroke-opacity:1"
       d="m 2677.2491,-78.188594 h 16.1711 l -16.2141,16.214072 z"
       id="path7-3-6" /><path
       style="fill:#37a13b;fill-opacity:1;stroke:none;stroke-width:0.278596px;stroke-linecap:butt;stroke-linejoin:miter;stroke-opacity:1"
       d="m 2698.623,-56.873853 -16.1709,0.02528 16.189,-16.239167 z"
       id="path7-0-6-0" /><path
       id="rect8-6"
       style="fill:#5afe71;fill-opacity:1;stroke-width:1.274;stroke-linecap:square;paint-order:markers stroke fill"
       d="m 2680.7434,-74.7916 h 14.8799 v 14.879943 h -14.8799 z" /><path
       id="path8-2"
       style="fill:#5afe71;fill-opacity:1;stroke:none;stroke-width:1.17184;stroke-linecap:square;paint-order:markers stroke fill"
       d="m 2687.8796,-60.300765 a 7.0883336,7.0883336 0 0 1 -7.0883,-7.088333 7.0883336,7.0883336 0 0 1 7.0883,-7.088334 7.0883336,7.0883336 0 0 1 7.0883,7.088334 7.0883336,7.0883336 0 0 1 -7.0883,7.088333 z" /><path
       id="path8-3-6"
       style="fill:#37a13b;fill-opacity:1;stroke-width:0.597244;stroke-linecap:square;paint-order:markers stroke fill"
       d="m 2688.164,-63.802996 a 3.6126685,3.6126685 0 0 1 -3.6126,-3.612668 3.6126685,3.6126685 0 0 1 3.6126,-3.612668 3.6126685,3.6126685 0 0 1 3.6127,3.612668 3.6126685,3.6126685 0 0 1 -3.6127,3.612668 z" /></g></svg>
