<?xml version="1.0" encoding="UTF-8" standalone="no"?>
<!-- Created with Inkscape (http://www.inkscape.org/) -->

<svg
   width="66.713753mm"
   height="75.744118mm"
   viewBox="0 0 66.713753 75.744118"
   version="1.1"
   id="svg1"
   xml:space="preserve"
   xmlns="http://www.w3.org/2000/svg"
   xmlns:svg="http://www.w3.org/2000/svg"><defs
     id="defs1" /><g
     id="layer1"
     transform="translate(1232.1646,-415.1324)"><g
       id="path22-6-2-5-8-1-5"
       transform="matrix(1.0148089,0,0,1.0148089,-1233.1953,384.56732)"><path
         style="color:#000000;fill:#000000;stroke-linecap:round;stroke-linejoin:round;-inkscape-stroke:none;paint-order:markers stroke fill"
         d="M 31.835937,30.667969 3.0664063,47.277344 A 4.1018801,4.1018801 0 0 0 1.015625,50.828125 v 33.220703 a 4.1018801,4.1018801 0 0 0 2.0507813,3.550781 L 31.835937,104.20898 a 4.1018801,4.1018801 0 0 0 4.09961,0 L 64.705078,87.599609 a 4.1018801,4.1018801 0 0 0 2.050781,-3.550781 V 50.828125 A 4.1018801,4.1018801 0 0 0 64.705078,47.277344 L 35.935547,30.667969 a 4.1018801,4.1018801 0 0 0 -4.09961,0 z m 2.050782,8.287109 24.666015,14.242188 V 81.679687 L 33.886719,95.921875 9.21875,81.679687 V 53.197266 Z"
         id="path1" /><path
         style="color:#000000;fill:#000000;stroke-linecap:round;stroke-linejoin:round;-inkscape-stroke:none;paint-order:markers stroke fill"
         d="M 62.654425,84.048079 33.885776,100.65767 5.1171284,84.048078 5.1171285,50.828905 33.885777,34.219318 62.654425,50.828905 Z"
         id="path2" /></g><path
       style="fill:#ee0055;fill-opacity:1;stroke:none;stroke-width:0.264583px;stroke-linecap:butt;stroke-linejoin:miter;stroke-opacity:1"
       d="m -1170.039,436.39492 -28.7687,16.60958 -28.7686,-16.60959 28.7686,-16.60958 z"
       id="path23-5-2-7-2-5-6-7-35" /><path
       style="fill:#730029;fill-opacity:1;stroke:none;stroke-width:0.264583px;stroke-linecap:butt;stroke-linejoin:miter;stroke-opacity:1"
       d="m -1227.5763,436.39491 28.7686,16.60959 v 33.21918 l -28.7686,-16.60959 z"
       id="path23-1-8-4-8-7-62" /><path
       style="fill:#ac003d;fill-opacity:1;stroke:none;stroke-width:0.264583px;stroke-linecap:butt;stroke-linejoin:miter;stroke-opacity:1"
       d="m -1170.039,436.39491 -28.7687,16.60959 v 33.21918 l 28.7687,-16.60959 z"
       id="path23-5-8-9-7-8-1-9" /><path
       id="path24-9-7-6-4-1-1"
       style="fill:#ffffff;stroke-width:9.84706;paint-order:markers stroke fill"
       d="m -1182.2758,453.00452 a 17.076448,16.946745 0 0 1 -17.0765,16.94674 17.076448,16.946745 0 0 1 -17.0764,-16.94674 17.076448,16.946745 0 0 1 17.0764,-16.94675 17.076448,16.946745 0 0 1 17.0765,16.94675 z" /><path
       id="path24-7-2-3-5-3-5-2"
       style="stroke-width:6.24377;paint-order:markers stroke fill"
       d="m -1187.9799,453.00452 a 10.827742,10.745501 0 0 1 -10.8277,10.7455 10.827742,10.745501 0 0 1 -10.8278,-10.7455 10.827742,10.745501 0 0 1 10.8278,-10.7455 10.827742,10.745501 0 0 1 10.8277,10.7455 z" /><path
       id="path24-6-0-6-6-1-9-7"
       style="fill:#ffffff;stroke-width:2.457;paint-order:markers stroke fill"
       d="m -1201.1137,446.48749 a 4.2608418,4.2284789 0 0 1 -4.2608,4.22848 4.2608418,4.2284789 0 0 1 -4.2609,-4.22848 4.2608418,4.2284789 0 0 1 4.2609,-4.22848 4.2608418,4.2284789 0 0 1 4.2608,4.22848 z" /></g></svg>
